Coordinates
version=1
nRows=126
nColumns=11
inDegrees=no

Units are S.I. units (second, meters, Newtons, ...)
If the header above contains a line with 'inDegrees', this indicates whether rotational values are in degrees (yes) or radians (no).

endheader
time	pelvis_tilt	pelvis_tx	pelvis_ty	hip_flexion_r	knee_angle_r	ankle_angle_r	hip_flexion_l	knee_angle_l	ankle_angle_l	lumbar_extension
105.01	-0.170406	-0.25667	0.861687	0.756317	-0.389242	0.0625619	-0.0665696	-0.328586	0.303212	0
105.02	-0.166877	-0.254356	0.862633	0.752184	-0.419986	0.073563	-0.0632131	-0.369268	0.272581	0
105.03	-0.166292	-0.252866	0.863752	0.750464	-0.449443	0.0859437	-0.0495401	-0.419773	0.234537	0
105.04	-0.145492	-0.248703	0.866473	0.718878	-0.471742	0.0935334	-0.0574691	-0.473888	0.185121	0
105.05	-0.165619	-0.250564	0.867069	0.73633	-0.487352	0.0988612	-0.00672778	-0.535443	0.125897	0
105.06	-0.165013	-0.249357	0.869011	0.723578	-0.49686	0.116776	0.0191371	-0.596771	0.0670937	0
105.07	-0.164669	-0.248501	0.871011	0.708987	-0.502716	0.136429	0.0494256	-0.661264	0.00440096	0
105.08	-0.162046	-0.247302	0.872949	0.690194	-0.506184	0.152675	0.0806264	-0.728128	-0.0608231	0
105.09	-0.13958	-0.24253	0.875962	0.644139	-0.507272	0.169231	0.083777	-0.786942	-0.121019	0
105.1	-0.136984	-0.241401	0.877954	0.623167	-0.506436	0.182524	0.118023	-0.848678	-0.199528	0
105.11	-0.136332	-0.241119	0.879744	0.606062	-0.507818	0.195581	0.155269	-0.905782	-0.267088	0
105.12	-0.134935	-0.240882	0.881546	0.587267	-0.508076	0.212382	0.19068	-0.956068	-0.322316	0
105.13	-0.131778	-0.240608	0.883613	0.563823	-0.503759	0.228796	0.223157	-1.00453	-0.341271	0
105.14	-0.136464	-0.241425	0.885117	0.550747	-0.496169	0.24261	0.268989	-1.05557	-0.3153	0
105.15	-0.154134	-0.245618	0.885649	0.554737	-0.487436	0.247821	0.336225	-1.10997	-0.266747	0
105.16	-0.155855	-0.246865	0.887278	0.536675	-0.477387	0.254328	0.376021	-1.14588	-0.221637	0
105.17	-0.155427	-0.247064	0.889181	0.512643	-0.46248	0.262358	0.410413	-1.16975	-0.191277	0
105.18	-0.155207	-0.247402	0.891057	0.489352	-0.448241	0.267429	0.44435	-1.18639	-0.165364	0
105.19	-0.164418	-0.249507	0.891858	0.482011	-0.437798	0.265911	0.49551	-1.20403	-0.141246	0
105.2	-0.15585	-0.248869	0.894467	0.445862	-0.420628	0.267309	0.511822	-1.20084	-0.115084	0
105.21	-0.156624	-0.249588	0.895828	0.423203	-0.403217	0.270529	0.544046	-1.19926	-0.0883166	0
105.22	-0.156195	-0.250882	0.897113	0.399391	-0.389493	0.278122	0.571691	-1.19038	-0.0631346	0
105.23	-0.137633	-0.247862	0.899301	0.35352	-0.376919	0.288746	0.571087	-1.17008	-0.0388091	0
105.24	-0.13628	-0.248277	0.900247	0.327467	-0.358273	0.294839	0.594404	-1.14995	-0.0100754	0
105.25	-0.139593	-0.249695	0.900403	0.312804	-0.349195	0.298405	0.624822	-1.12775	0.00963996	0
105.26	-0.170122	-0.257022	0.897935	0.334954	-0.34016	0.297364	0.695116	-1.10903	0.0301768	0
105.27	-0.160319	-0.255678	0.898558	0.300971	-0.327472	0.307832	0.699503	-1.06907	0.0491626	0
105.28	-0.161775	-0.256936	0.897848	0.282917	-0.316979	0.314116	0.719407	-1.02946	0.0654682	0
105.29	-0.139618	-0.253682	0.898689	0.233955	-0.308246	0.325701	0.70287	-0.981344	0.0808159	0
105.3	-0.158418	-0.25807	0.896467	0.237563	-0.29499	0.329392	0.740155	-0.931526	0.0994613	0
105.31	-0.139468	-0.255145	0.896737	0.194949	-0.290688	0.339413	0.72305	-0.875024	0.116416	0
105.32	-0.13846	-0.255326	0.895467	0.172991	-0.27989	0.346971	0.727024	-0.811398	0.127938	0
105.33	-0.139765	-0.25617	0.893491	0.156185	-0.273141	0.357149	0.733077	-0.745744	0.13211	0
105.34	-0.140019	-0.256586	0.891403	0.13766	-0.266238	0.368848	0.734414	-0.675659	0.132733	0
105.35	-0.14041	-0.256791	0.889264	0.118824	-0.25914	0.37826	0.733137	-0.601669	0.127913	0
105.36	-0.141666	-0.257081	0.886878	0.100891	-0.25206	0.387562	0.73141	-0.525352	0.11674	0
105.37	-0.142236	-0.256837	0.884261	0.0795447	-0.240872	0.395044	0.728565	-0.450954	0.11142	0
105.38	-0.141692	-0.256061	0.881549	0.0542733	-0.225379	0.401058	0.721806	-0.375575	0.1181	0
105.39	-0.163644	-0.258757	0.877099	0.0583252	-0.209976	0.402411	0.746714	-0.310542	0.130252	0
105.4	-0.167807	-0.258117	0.873909	0.0421665	-0.200125	0.407771	0.75203	-0.255009	0.141779	0
105.41	-0.167803	-0.256706	0.871115	0.0181904	-0.186785	0.410252	0.751856	-0.207264	0.153503	0
105.42	-0.167378	-0.255315	0.868464	-0.006057	-0.173832	0.410587	0.749533	-0.165501	0.164618	0
105.43	-0.17554	-0.255602	0.865328	-0.0162383	-0.167227	0.405109	0.762319	-0.142599	0.170598	0
105.44	-0.165728	-0.252465	0.863542	-0.051095	-0.15719	0.404902	0.751772	-0.127592	0.181655	0
105.45	-0.142576	-0.247987	0.862873	-0.0998666	-0.153675	0.404076	0.729117	-0.135073	0.191553	0
105.46	-0.167747	-0.25078	0.859301	-0.0831639	-0.157437	0.392422	0.768057	-0.15893	0.178206	0
105.47	-0.164657	-0.24854	0.857855	-0.0998602	-0.165981	0.388353	0.767083	-0.183495	0.154316	0
105.48	-0.165034	-0.246948	0.856311	-0.110391	-0.176837	0.379175	0.76834	-0.208676	0.122692	0
105.49	-0.143571	-0.242286	0.856541	-0.1489	-0.187564	0.370641	0.744064	-0.237067	0.102942	0
105.5	-0.141951	-0.24038	0.856318	-0.160151	-0.200685	0.349977	0.747666	-0.270092	0.0865102	0
105.51	-0.141327	-0.23852	0.856525	-0.165436	-0.221746	0.32642	0.751698	-0.302436	0.0698618	0
105.52	-0.140913	-0.236582	0.85706	-0.167044	-0.24704	0.297411	0.756036	-0.338273	0.0573039	0
105.53	-0.141182	-0.234895	0.858144	-0.163928	-0.277661	0.26153	0.761189	-0.377398	0.0547496	0
105.54	-0.161334	-0.236477	0.858665	-0.133186	-0.311515	0.213832	0.787656	-0.412328	0.0586745	0
105.55	-0.157572	-0.233437	0.860824	-0.127346	-0.350755	0.162275	0.778434	-0.434197	0.0630887	0
105.56	-0.155384	-0.231198	0.863211	-0.115271	-0.396826	0.108788	0.767478	-0.450234	0.0625149	0
105.57	-0.152156	-0.228813	0.8659	-0.0983481	-0.451851	0.057629	0.752872	-0.462008	0.0642251	0
105.58	-0.148585	-0.226729	0.868573	-0.0765075	-0.514375	0.0112726	0.735593	-0.469875	0.0748511	0
105.59	-0.144743	-0.225247	0.871389	-0.0503629	-0.58167	-0.0259415	0.715692	-0.474685	0.0913126	0
105.6	-0.119792	-0.221204	0.875668	-0.0506503	-0.646667	-0.0608638	0.66824	-0.480056	0.111084	0
105.61	-0.120097	-0.22021	0.878238	-0.0130915	-0.715247	-0.108512	0.655585	-0.487728	0.128805	0
105.62	-0.116683	-0.219428	0.881004	0.0191727	-0.780681	-0.144532	0.636462	-0.491867	0.143142	0
105.63	-0.117182	-0.219947	0.883536	0.0564933	-0.845331	-0.161629	0.619419	-0.490646	0.153057	0
105.64	-0.128806	-0.222012	0.88546	0.111994	-0.913773	-0.156231	0.615669	-0.485208	0.164404	0
105.65	-0.110233	-0.21833	0.889711	0.119157	-0.960813	-0.132459	0.569193	-0.474082	0.179159	0
105.66	-0.106464	-0.218409	0.892781	0.149552	-1.01078	-0.106028	0.544191	-0.466838	0.188665	0
105.67	-0.120337	-0.221074	0.894499	0.207897	-1.05977	-0.0864889	0.543766	-0.458651	0.193081	0
105.68	-0.118033	-0.22124	0.897401	0.238906	-1.09167	-0.0715917	0.520165	-0.449221	0.198169	0
105.69	-0.114318	-0.22123	0.900417	0.267189	-1.11589	-0.0580479	0.491364	-0.433063	0.203253	0
105.7	-0.0982151	-0.219231	0.904266	0.274255	-1.12718	-0.0463534	0.44542	-0.415496	0.20748	0
105.71	-0.0995152	-0.219421	0.906418	0.310485	-1.14169	-0.031004	0.424931	-0.397581	0.209003	0
105.72	-0.0985355	-0.221832	0.908891	0.338843	-1.14955	-0.0121804	0.398353	-0.38156	0.210972	0
105.73	-0.0967148	-0.221835	0.910917	0.367298	-1.15137	0.00268976	0.372316	-0.364273	0.213057	0
105.74	-0.10872	-0.224889	0.911762	0.415391	-1.15122	0.0175418	0.362285	-0.340357	0.212396	0
105.75	-0.0954481	-0.223533	0.914205	0.422632	-1.13637	0.0324885	0.321404	-0.32381	0.215697	0
105.76	-0.110057	-0.228134	0.914261	0.472268	-1.12773	0.0471359	0.318342	-0.30865	0.214924	0
105.77	-0.108044	-0.228251	0.915265	0.494629	-1.10668	0.0655328	0.292409	-0.290042	0.216303	0
105.78	-0.0933932	-0.22731	0.916815	0.495835	-1.07811	0.0789652	0.252149	-0.278299	0.221668	0
105.79	-0.0923421	-0.228495	0.917176	0.515421	-1.04643	0.0946986	0.229225	-0.262967	0.225832	0
105.8	-0.0922115	-0.229429	0.91733	0.533532	-1.00875	0.106717	0.207726	-0.249676	0.230195	0
105.81	-0.0924893	-0.230662	0.917071	0.550563	-0.966693	0.117189	0.188564	-0.23927	0.236444	0
105.82	-0.0947354	-0.232771	0.916064	0.570296	-0.923723	0.128193	0.173878	-0.230997	0.244182	0
105.83	-0.0969965	-0.234845	0.914798	0.587246	-0.875136	0.137133	0.158513	-0.221403	0.250267	0
105.84	-0.100043	-0.236788	0.913378	0.601747	-0.819801	0.139844	0.144323	-0.21318	0.257967	0
105.85	-0.117462	-0.240362	0.910756	0.632256	-0.757555	0.133696	0.148531	-0.202684	0.26306	0
105.86	-0.119087	-0.241538	0.908981	0.638495	-0.691182	0.121155	0.131651	-0.193667	0.271593	0
105.87	-0.120461	-0.242911	0.906943	0.641787	-0.621253	0.107721	0.114977	-0.186007	0.277868	0
105.88	-0.121512	-0.243836	0.904657	0.642318	-0.548302	0.0995535	0.0968402	-0.176586	0.287821	0
105.89	-0.121228	-0.244598	0.902325	0.639217	-0.474316	0.0999315	0.0763822	-0.167329	0.300068	0
105.9	-0.123148	-0.244741	0.899624	0.639184	-0.401186	0.105004	0.0601438	-0.15997	0.310606	0
105.91	-0.12362	-0.245147	0.896711	0.637402	-0.331817	0.115214	0.0417968	-0.154092	0.323122	0
105.92	-0.107272	-0.243122	0.894887	0.611541	-0.261575	0.127118	-0.00029172	-0.146976	0.336415	0
105.93	-0.10047	-0.241209	0.892285	0.600146	-0.196501	0.139881	-0.0306952	-0.135424	0.343669	0
105.94	-0.125206	-0.245041	0.887308	0.634078	-0.147103	0.146037	-0.0182225	-0.127415	0.346564	0
105.95	-0.105339	-0.241868	0.885658	0.609853	-0.104865	0.160642	-0.0653739	-0.117896	0.355277	0
105.96	-0.10418	-0.24143	0.882939	0.611979	-0.0740433	0.161684	-0.0866056	-0.110198	0.357736	0
105.97	-0.12296	-0.243684	0.878953	0.644812	-0.0610742	0.153846	-0.077142	-0.111403	0.356618	0
105.98	-0.122967	-0.243208	0.876379	0.655571	-0.0638627	0.155443	-0.0930052	-0.112107	0.359793	0
105.99	-0.124112	-0.243173	0.873996	0.670653	-0.0843324	0.156076	-0.105982	-0.11548	0.361493	0
106	-0.124812	-0.243022	0.871907	0.688073	-0.119582	0.158072	-0.119185	-0.119111	0.360999	0
106.01	-0.125387	-0.242509	0.870248	0.704459	-0.161678	0.160581	-0.131994	-0.124408	0.356484	0
106.02	-0.103354	-0.238546	0.870125	0.686858	-0.201123	0.165159	-0.172624	-0.132281	0.353163	0
106.03	-0.125143	-0.240681	0.867393	0.724638	-0.244507	0.154752	-0.155345	-0.140287	0.337278	0
106.04	-0.124355	-0.239528	0.866461	0.729597	-0.28115	0.143519	-0.167068	-0.148802	0.323245	0
106.05	-0.123076	-0.237701	0.865868	0.730557	-0.311817	0.133039	-0.178765	-0.159432	0.307355	0
106.06	-0.12119	-0.235527	0.865924	0.726343	-0.334285	0.117573	-0.189112	-0.173874	0.289319	0
106.07	-0.119917	-0.233359	0.866125	0.723186	-0.356191	0.0959336	-0.195367	-0.192847	0.266193	0
106.08	-0.117646	-0.231022	0.866596	0.719866	-0.380835	0.0755603	-0.199637	-0.216636	0.23888	0
106.09	-0.115381	-0.22866	0.867596	0.716546	-0.408468	0.0696995	-0.200448	-0.246408	0.205417	0
106.1	-0.113687	-0.226542	0.869112	0.713479	-0.438177	0.0780785	-0.194665	-0.284554	0.166824	0
106.11	-0.112655	-0.224853	0.870846	0.70749	-0.46146	0.0903304	-0.181969	-0.331848	0.129472	0
106.12	-0.095011	-0.221342	0.87384	0.674594	-0.475146	0.0985619	-0.186869	-0.382938	0.0888099	0
106.13	-0.0956137	-0.220192	0.87586	0.663389	-0.483695	0.096989	-0.161451	-0.442779	0.0387568	0
106.14	-0.097376	-0.219467	0.877707	0.654129	-0.492536	0.100673	-0.127969	-0.512407	-0.00948357	0
106.15	-0.112397	-0.220424	0.878912	0.659948	-0.498416	0.116288	-0.0721268	-0.586781	-0.06145	0
106.16	-0.110558	-0.219136	0.881051	0.642671	-0.503967	0.134316	-0.0388548	-0.655945	-0.114088	0
106.17	-0.108875	-0.218202	0.883086	0.624878	-0.506744	0.149778	-0.00332829	-0.724448	-0.16971	0
106.18	-0.106234	-0.217283	0.885201	0.604917	-0.507094	0.165474	0.0304868	-0.788735	-0.218389	0
106.19	-0.0909174	-0.214728	0.888129	0.568169	-0.50732	0.179884	0.0440275	-0.842017	-0.25137	0
106.2	-0.0885729	-0.214156	0.890193	0.547669	-0.505363	0.192537	0.0763646	-0.897366	-0.258249	0
106.21	-0.0859962	-0.213858	0.892454	0.525054	-0.500071	0.203408	0.10791	-0.95069	-0.235721	0
106.22	-0.0842187	-0.213977	0.894559	0.503021	-0.49276	0.213907	0.1406	-0.999959	-0.200079	0
106.23	-0.0854203	-0.215214	0.896539	0.483992	-0.483116	0.22288	0.176988	-1.04322	-0.167868	0
106.24	-0.094676	-0.218177	0.897854	0.474291	-0.469276	0.230253	0.226427	-1.08356	-0.142818	0
106.25	-0.0932056	-0.218958	0.899888	0.450861	-0.456451	0.235113	0.258326	-1.11109	-0.123559	0
106.26	-0.0780204	-0.216681	0.902929	0.408414	-0.443164	0.242035	0.266445	-1.1241	-0.103922	0
